<?xml version="1.0" standalone="no"?>
<!DOCTYPE svg PUBLIC "-//W3C//DTD SVG 20010904//EN"
 "http://www.w3.org/TR/2001/REC-SVG-20010904/DTD/svg10.dtd">
<svg version="1.0" xmlns="http://www.w3.org/2000/svg"
 width="800.000000pt" height="800.000000pt" viewBox="0 0 800.000000 800.000000"
 preserveAspectRatio="xMidYMid meet">

<g transform="translate(0.000000,800.000000) scale(0.100000,-0.100000)"
fill="#000000" stroke="none">
<path d="M3865 7483 c-1022 -40 -1964 -517 -2600 -1318 -410 -515 -667 -1149
-736 -1810 -16 -159 -13 -607 6 -767 30 -257 97 -535 190 -793 52 -142 110
-276 119 -276 3 1 41 19 85 40 302 152 666 303 991 409 305 100 744 206 987
238 33 4 55 12 60 23 4 9 9 405 10 881 2 476 3 875 3 888 l0 22 1015 0 1015 0
3 -302 c1 -167 2 -571 2 -898 l0 -594 45 -12 c25 -6 104 -22 175 -34 561 -97
1185 -305 1753 -585 l170 -83 51 121 c140 343 194 540 245 897 35 240 37 639
6 895 -113 938 -606 1790 -1365 2361 -426 321 -937 548 -1435 638 -201 36
-577 71 -695 64 -16 -1 -61 -3 -100 -5z"/>
<path d="M3640 2810 c-860 -53 -1685 -273 -2432 -646 -62 -31 -115 -58 -117
-60 -17 -15 114 -200 264 -374 226 -262 502 -500 790 -682 140 -88 474 -253
630 -311 672 -249 1385 -288 2070 -116 800 202 1470 655 1984 1341 103 138
105 133 -89 224 -751 354 -1420 539 -2205 609 -203 19 -706 27 -895 15z"/>
</g>
</svg>
